# xmcd CD database file
# Copyright (C) 1997 Ti Kan
# 
# Track frame offsets:
#     150
#     8687
#     21570
#     37385
#     43125
#     59867
#     64885
#     82050
#     86670
#     114730
#     136615
#     155022
#     172650
#     187922
# 
# Disc length: 2685 seconds
# 
# Revision: 1
# Processed by: cddbd v1.4b41PL1 Copyright (c) Steve Scherf et al.
# Submitted via: DiscPlay 4.0.3
# 
DISCID=c30a7b0e
DTITLE=Jerry Jeff Walker - A Man MustCarry On Volume Two
DYEAR=1900
DGENRE=
TTITLE0=His Heart Was Full Of Mischief
TTITLE1=The Stranger (He WasThe Kind)
TTITLE2=Rockin' Chair
TTITLE3=It Shall be a Midnight Music
TTITLE4=Luckenbach Moon
TTITLE5=Like Some Song You Can't Unlearn
TTITLE6=My Buddy
TTITLE7=The Stranger (He Was the Kind) Reprise
TTITLE8=Mr Bojangles
TTITLE9=L.A. Freeway
TTITLE10=Sea Cruise Medley
TTITLE11=One Too Many Mornings
TTITLE12=Up Against a Wall Redneck
TTITLE13=Will the Circle Be Unbroken
EXTD=Live album\nURL: http://www.jerryjeff.com/ "Jerry Jeff Walker Home Page
EXTT0=
EXTT1=
EXTT2=
EXTT3=
EXTT4=
EXTT5=
EXTT6=
EXTT7=
EXTT8=
EXTT9=
EXTT10=
EXTT11=
EXTT12=
EXTT13=
PLAYORDER=
